HIERARCHY
ROOT reference
{
  OFFSET 0 0 0
  CHANNELS 6 Xposition Yposition Zposition Zrotation Xrotation Yrotation
  JOINT Hips
  {
    OFFSET 340.57 87.5694 214.797
    CHANNELS 3 Zrotation Xrotation Yrotation
    JOINT RightUpLeg
    {
      OFFSET -9.35418 -1.55218 -0.019184
      CHANNELS 3 Zrotation Xrotation Yrotation
      JOINT RightLeg
      {
        OFFSET -0.0482219 -41.8948 0.0725956
        CHANNELS 3 Zrotation Xrotation Yrotation
        JOINT RightFoot
        {
          OFFSET -1.00159 -42.3965 -1.97064
          CHANNELS 3 Zrotation Xrotation Yrotation
          End Site
          {
            OFFSET 0 -7.69 17.5
          }
        }
      }
    }
    JOINT LeftUpLeg
    {
      OFFSET 9.33628 -1.64535 -0.0795185
      CHANNELS 3 Zrotation Xrotation Yrotation
      JOINT LeftLeg
      {
        OFFSET 0.124871 -41.8725 -0.08325
        CHANNELS 3 Zrotation Xrotation Yrotation
        JOINT LeftFoot
        {
          OFFSET 0.728222 -40.8097 2.1196
          CHANNELS 3 Zrotation Xrotation Yrotation
          End Site
          {
            OFFSET 0 -7.69 17.5
          }
        }
      }
    }
    JOINT Spine
    {
      OFFSET -0.0135102 14.2943 0.0647361
      CHANNELS 3 Zrotation Xrotation Yrotation
      JOINT Spine1
      {
        OFFSET 0.0181502 9.72385 0.0148045
        CHANNELS 3 Zrotation Xrotation Yrotation
        JOINT Spine2
        {
          OFFSET 0.0557859 10.1166 -0.00979693
          CHANNELS 3 Zrotation Xrotation Yrotation
          JOINT Spine3
          {
            OFFSET 0.0359868 9.71757 0.00306838
            CHANNELS 3 Zrotation Xrotation Yrotation
            JOINT Neck
            {
              OFFSET 0.139197 10.3803 0.0501204
              CHANNELS 3 Zrotation Xrotation Yrotation
              JOINT Head
              {
                OFFSET 0.148012 9.47645 -0.000545472
                CHANNELS 3 Zrotation Xrotation Yrotation
                End Site
                {
                  OFFSET 0 15.95 0
                }
              }
            }
            JOINT RightShoulder
            {
              OFFSET -3.16276 6.92807 0.0312834
              CHANNELS 3 Zrotation Xrotation Yrotation
              JOINT RightArm
              {
                OFFSET -12.7681 0.0492996 0.0890957
                CHANNELS 3 Zrotation Xrotation Yrotation
                JOINT RightForeArm
                {
                  OFFSET -26.4761 -0.090776 0.147076
                  CHANNELS 3 Zrotation Xrotation Yrotation
                  JOINT RightHand
                  {
                    OFFSET -25.9655 0.0607057 -0.248467
                    CHANNELS 3 Zrotation Xrotation Yrotation
                    JOINT RightHandThumb1
                    {
                      OFFSET -2.48905 0.190105 3.12053
                      CHANNELS 3 Zrotation Xrotation Yrotation
                      JOINT RightHandThumb2
                      {
                        OFFSET -3.68274 0 0
                        CHANNELS 3 Zrotation Xrotation Yrotation
                        JOINT RightHandThumb3
                        {
                          OFFSET -2.55832 0 0
                          CHANNELS 3 Zrotation Xrotation Yrotation
                          End Site
                          {
                            OFFSET -2.194 0 0
                          }
                        }
                      }
                    }
                    JOINT RightInHandIndex
                    {
                      OFFSET -3.22368 0.508421 1.97842
                      CHANNELS 3 Zrotation Xrotation Yrotation
                      JOINT RightHandIndex1
                      {
                        OFFSET -5.21684 -0.091368 0.999158
                        CHANNELS 3 Zrotation Xrotation Yrotation
                        JOINT RightHandIndex2
                        {
                          OFFSET -3.61937 0 0
                          CHANNELS 3 Zrotation Xrotation Yrotation
                          JOINT RightHandIndex3
                          {
                            OFFSET -2.0521 0 0
                            CHANNELS 3 Zrotation Xrotation Yrotation
                            End Site
                            {
                              OFFSET -1.805 0 0
                            }
                          }
                        }
                      }
                    }
                    JOINT RightInHandMiddle
                    {
                      OFFSET -3.38211 0.517263 0.756737
                      CHANNELS 3 Zrotation Xrotation Yrotation
                      JOINT RightHandMiddle1
                      {
                        OFFSET -5.17411 -0.084 0.313895
                        CHANNELS 3 Zrotation Xrotation Yrotation
                        JOINT RightHandMiddle2
                        {
                          OFFSET -3.94947 0 0
                          CHANNELS 3 Zrotation Xrotation Yrotation
                          JOINT RightHandMiddle3
                          {
                            OFFSET -2.47579 0 0
                            CHANNELS 3 Zrotation Xrotation Yrotation
                            End Site
                            {
                              OFFSET -1.975 0 0
                            }
                          }
                        }
                      }
                    }
                    JOINT RightInHandRing
                    {
                      OFFSET -3.36516 0.537895 -0.128947
                      CHANNELS 3 Zrotation Xrotation Yrotation
                      JOINT RightHandRing1
                      {
                        OFFSET -4.63474 -0.022105 -0.478947
                        CHANNELS 3 Zrotation Xrotation Yrotation
                        JOINT RightHandRing2
                        {
                          OFFSET -3.44238 0 0
                          CHANNELS 3 Zrotation Xrotation Yrotation
                          JOINT RightHandRing3
                          {
                            OFFSET -2.3881 0 0
                            CHANNELS 3 Zrotation Xrotation Yrotation
                            End Site
                            {
                              OFFSET -1.857 0 0
                            }
                          }
                        }
                      }
                    }
                    JOINT RightInHandPinky
                    {
                      OFFSET -3.16105 0.469368 -1.20179
                      CHANNELS 3 Zrotation Xrotation Yrotation
                      JOINT RightHandPinky1
                      {
                        OFFSET -4.14105 -0.022105 -1.09053
                        CHANNELS 3 Zrotation Xrotation Yrotation
                        JOINT RightHandPinky2
                        {
                          OFFSET -2.75653 0 0
                          CHANNELS 3 Zrotation Xrotation Yrotation
                          JOINT RightHandPinky3
                          {
                            OFFSET -1.74189 0 0
                            CHANNELS 3 Zrotation Xrotation Yrotation
                            End Site
                            {
                              OFFSET -1.645 0 0
                            }
                          }
                        }
                      }
                    }
                  }
                }
              }
            }
            JOINT LeftShoulder
            {
              OFFSET 3.20588 6.97332 0.0254387
              CHANNELS 3 Zrotation Xrotation Yrotation
              JOINT LeftArm
              {
                OFFSET 12.8648 0.0341024 0.0247643
                CHANNELS 3 Zrotation Xrotation Yrotation
                JOINT LeftForeArm
                {
                  OFFSET 26.5059 -0.0470976 -0.0807017
                  CHANNELS 3 Zrotation Xrotation Yrotation
                  JOINT LeftHand
                  {
                    OFFSET 26.0013 -0.0100885 -0.0649647
                    CHANNELS 3 Zrotation Xrotation Yrotation
                    JOINT LeftHandThumb1
                    {
                      OFFSET 2.48905 0.190105 3.12053
                      CHANNELS 3 Zrotation Xrotation Yrotation
                      JOINT LeftHandThumb2
                      {
                        OFFSET 3.68274 0 0
                        CHANNELS 3 Zrotation Xrotation Yrotation
                        JOINT LeftHandThumb3
                        {
                          OFFSET 2.55832 0 0
                          CHANNELS 3 Zrotation Xrotation Yrotation
                          End Site
                          {
                            OFFSET 2.194 0 0
                          }
                        }
                      }
                    }
                    JOINT LeftInHandIndex
                    {
                      OFFSET 3.22368 0.508421 1.97842
                      CHANNELS 3 Zrotation Xrotation Yrotation
                      JOINT LeftHandIndex1
                      {
                        OFFSET 5.21684 -0.091368 0.999158
                        CHANNELS 3 Zrotation Xrotation Yrotation
                        JOINT LeftHandIndex2
                        {
                          OFFSET 3.61937 0 0
                          CHANNELS 3 Zrotation Xrotation Yrotation
                          JOINT LeftHandIndex3
                          {
                            OFFSET 2.0521 0 0
                            CHANNELS 3 Zrotation Xrotation Yrotation
                            End Site
                            {
                              OFFSET 1.805 0 0
                            }
                          }
                        }
                      }
                    }
                    JOINT LeftInHandMiddle
                    {
                      OFFSET 3.38211 0.517263 0.756737
                      CHANNELS 3 Zrotation Xrotation Yrotation
                      JOINT LeftHandMiddle1
                      {
                        OFFSET 5.17411 -0.084 0.313895
                        CHANNELS 3 Zrotation Xrotation Yrotation
                        JOINT LeftHandMiddle2
                        {
                          OFFSET 3.94947 0 0
                          CHANNELS 3 Zrotation Xrotation Yrotation
                          JOINT LeftHandMiddle3
                          {
                            OFFSET 2.47579 0 0
                            CHANNELS 3 Zrotation Xrotation Yrotation
                            End Site
                            {
                              OFFSET 1.975 0 0
                            }
                          }
                        }
                      }
                    }
                    JOINT LeftInHandRing
                    {
                      OFFSET 3.36516 0.537895 -0.128947
                      CHANNELS 3 Zrotation Xrotation Yrotation
                      JOINT LeftHandRing1
                      {
                        OFFSET 4.63474 -0.022105 -0.478947
                        CHANNELS 3 Zrotation Xrotation Yrotation
                        JOINT LeftHandRing2
                        {
                          OFFSET 3.44238 0 0
                          CHANNELS 3 Zrotation Xrotation Yrotation
                          JOINT LeftHandRing3
                          {
                            OFFSET 2.3881 0 0
                            CHANNELS 3 Zrotation Xrotation Yrotation
                            End Site
                            {
                              OFFSET 1.857 0 0
                            }
                          }
                        }
                      }
                    }
                    JOINT LeftInHandPinky
                    {
                      OFFSET 3.16105 0.469368 -1.20179
                      CHANNELS 3 Zrotation Xrotation Yrotation
                      JOINT LeftHandPinky1
                      {
                        OFFSET 4.14105 -0.022105 -1.09053
                        CHANNELS 3 Zrotation Xrotation Yrotation
                        JOINT LeftHandPinky2
                        {
                          OFFSET 2.75653 0 0
                          CHANNELS 3 Zrotation Xrotation Yrotation
                          JOINT LeftHandPinky3
                          {
                            OFFSET 1.74189 0 0
                            CHANNELS 3 Zrotation Xrotation Yrotation
                            End Site
                            {
                              OFFSET 1.645 0 0
                            }
                          }
                        }
                      }
                    }
                  }
                }
              }
            }
          }
        }
      }
    }
  }
}
MOTION
Frames: 2
Frame Time: 0.00833333
3.000000000000000000e+02 0.000000000000000000e+00 0.000000000000000000e+00 0.000000000000000000e+00 0.000000000000000000e+00 0.000000000000000000e+00 1.613573986668461954e-02 -8.011001139632843715e-02 -2.216752729751507098e-02 4.424105671410304141e-02 3.462734929705060631e-03 -1.294207025837714187e-01 -5.547025336822780650e-01 -1.672153031414601865e-01 1.206648168037645741e+00 3.666371575204698807e-01 1.026231057082629405e-01 -7.933196896567450418e-01 -3.008399331824291797e-02 -4.197051974119735129e-02 -1.605280244548137544e-02 -8.478090229312632009e-02 2.965119718318064493e-02 8.558819761084153488e-02 3.992812750518818371e-02 -2.192904205524576558e-02 2.411765303476529759e-02 -3.777516758815108178e-02 -1.522311977065567493e-02 4.487794893590952433e-02 -9.041689357703650010e-03 6.003102875255532291e-04 1.076015161815179269e-02 -1.519661739466518675e-02 -1.028195144227629816e-02 2.063360568358172872e-02 -1.145426698494889919e-03 -4.089148494884747029e-04 -3.068964174588251388e-03 1.079717261137212898e-02 1.602239914741949642e-02 -8.951626065218204475e-02 -3.809448310244487046e-02 -1.055615643613144316e-03 6.333968050484091450e-03 -2.406980718353708693e-02 -4.571634260787870579e-02 -4.758428208243037361e-02 3.358865342318574643e-02 6.799975761097994120e-02 1.682181534062236750e-02 -4.713546860888128687e-01 -1.212218299806542277e+00 8.377694279347681627e-01 5.455592872030714524e-01 -9.545521580271433271e-01 -9.768537911275068097e-01 0.000000000000000000e+00 0.000000000000000000e+00 0.000000000000000000e+00 2.680026884510885782e-15 6.069368065021954203e-16 0.000000000000000000e+00 1.437809897040057613e-15 8.487706072563831112e-17 0.000000000000000000e+00 -3.425614852213298737e-15 -1.220152360539929817e-15 2.767347270930289457e-15 0.000000000000000000e+00 0.000000000000000000e+00 0.000000000000000000e+00 0.000000000000000000e+00 -9.584959348640558340e-16 -7.321661853658070684e-15 0.000000000000000000e+00 3.611767963519196642e-16 -1.535417794577786667e-15 -3.425614852213298737e-15 -1.220152360539929817e-15 2.767347270930289457e-15 0.000000000000000000e+00 4.397815771724551713e-16 -6.765581189834940680e-15 0.000000000000000000e+00 8.587488217347938938e-16 -6.749401140025539543e-15 0.000000000000000000e+00 -2.237920904303926611e-15 -7.335198784521698622e-15 -3.425614852213298737e-15 -1.220152360539929817e-15 2.767347270930289457e-15 0.000000000000000000e+00 0.000000000000000000e+00 0.000000000000000000e+00 0.000000000000000000e+00 -5.633344682812904530e-15 -2.280809475802941062e-15 0.000000000000000000e+00 -3.560964518961077444e-15 -4.004558822113088525e-15 -3.425614852213298737e-15 -1.220152360539929817e-15 2.767347270930289457e-15 0.000000000000000000e+00 0.000000000000000000e+00 0.000000000000000000e+00 0.000000000000000000e+00 -2.157470380294337869e-16 -1.017056593220413087e-14 0.000000000000000000e+00 -2.386963390315402189e-15 6.037865160368199367e-17 -5.491175942046850472e-02 -7.360910746828214224e-02 -7.525342344402086159e-02 -4.739964223179455455e-02 4.852320570313740922e-02 3.445932259823259597e-02 4.269715800908294862e-02 -2.548771305667569403e-03 6.827196717909013446e-02 1.600341070927666434e-03 1.269098870664412196e-02 1.277071815866057287e-02 0.000000000000000000e+00 0.000000000000000000e+00 0.000000000000000000e+00 -1.105144827841881239e-15 2.798195536452444788e-15 0.000000000000000000e+00 -6.467652165687021027e-16 -1.584829984556354843e-15 0.000000000000000000e+00 3.576210336370998172e-15 1.955607541588139793e-15 1.264919849086487515e-15 0.000000000000000000e+00 0.000000000000000000e+00 0.000000000000000000e+00 0.000000000000000000e+00 3.754016176803248572e-15 5.692210570301607705e-15 0.000000000000000000e+00 4.095765132131048552e-15 -8.361524741710265895e-17 3.576210336370998172e-15 1.955607541588139793e-15 1.264919849086487515e-15 0.000000000000000000e+00 -1.144219519417613597e-16 -5.832797095838876430e-15 0.000000000000000000e+00 -1.524280877257352529e-15 -3.363881880707951191e-15 0.000000000000000000e+00 -2.621095982203712784e-15 -3.861857598827674244e-15 3.576210336370998172e-15 1.955607541588139793e-15 1.264919849086487515e-15 0.000000000000000000e+00 0.000000000000000000e+00 0.000000000000000000e+00 0.000000000000000000e+00 -2.059163862986374519e-16 -6.166647563848262658e-16 0.000000000000000000e+00 -1.612925830212074134e-15 5.344368845108454883e-15 3.576210336370998172e-15 1.955607541588139793e-15 1.264919849086487515e-15 0.000000000000000000e+00 0.000000000000000000e+00 0.000000000000000000e+00 0.000000000000000000e+00 5.249214842877923805e-15 3.213324419695073225e-15 0.000000000000000000e+00 -4.655916280762827520e-16 -2.177967762853177540e-15
3.000000000000000000e+02 0.000000000000000000e+00 0.000000000000000000e+00 0.000000000000000000e+00 0.000000000000000000e+00 0.000000000000000000e+00 1.151220936224098355e-03 -1.140135242545601765e-02 6.886519621040087212e-03 -5.210957803444114106e-02 1.538221962909629321e-02 6.464202777583816228e-01 2.092122198888551332e-01 2.606206837426916847e-02 -4.688958691994684624e-01 1.086634405445014023e-01 2.304163281918515140e-03 -2.350178074843919385e-01 1.202183481522036204e-02 -2.381683073595178973e-02 -8.389611683084924332e-02 -7.197746921134019760e-02 2.132000820959954746e-02 1.001746670700102426e-01 -3.968669344722067227e-02 -4.344493549319525943e-02 2.972057754204743968e-04 1.105823570439224725e-02 -6.508135731331870025e-03 -7.655568840766417693e-02 2.711830115521661391e-03 1.458123792114920936e-03 -2.011328233652815919e-02 4.523097418569559450e-03 -5.538229744015563984e-03 -3.156083947235625159e-02 -4.211285841136881876e-04 -8.205326003634158928e-05 4.357952236855948923e-03 -7.475414474153095797e-03 -3.989344961676456747e-02 2.306568090432444817e-01 -1.168424836128067849e-02 9.387157918088509523e-02 -7.510583970252525388e-02 -5.553925619768018684e-02 1.669867886353800651e-02 8.598397168842182581e-02 6.531884823176865862e-02 2.334908982890780971e-01 8.021464442597131539e-02 -1.023009578117757279e+00 -2.081946343433337621e+00 1.270609632947921730e+00 9.786664544694924084e-01 -1.601289846947133277e+00 -1.508819976008808572e+00 0.000000000000000000e+00 0.000000000000000000e+00 0.000000000000000000e+00 -5.127887068296504103e-15 -1.957300142240131910e-15 0.000000000000000000e+00 -2.077080005832907170e-15 -1.955168357658768194e-15 0.000000000000000000e+00 3.423830481560463679e-15 -1.985147173290174397e-15 6.289543283329797107e-15 0.000000000000000000e+00 0.000000000000000000e+00 0.000000000000000000e+00 0.000000000000000000e+00 -4.881962980563184769e-15 -6.627093382927900988e-15 0.000000000000000000e+00 1.228617759459736227e-15 -1.120575566975567013e-14 3.423830481560463679e-15 -1.985147173290174397e-15 6.289543283329797107e-15 0.000000000000000000e+00 -9.660706150142460641e-16 -6.747643165278173212e-15 0.000000000000000000e+00 -3.358889077221401746e-15 -7.635220249984912445e-15 0.000000000000000000e+00 -2.984373909804082551e-15 -8.965872349203204984e-15 3.423830481560463679e-15 -1.985147173290174397e-15 6.289543283329797107e-15 0.000000000000000000e+00 0.000000000000000000e+00 0.000000000000000000e+00 0.000000000000000000e+00 -2.106123871082028525e-15 -8.935449634312064916e-15 0.000000000000000000e+00 -5.972928429401952809e-15 -1.089927491548487336e-14 3.423830481560463679e-15 -1.985147173290174397e-15 6.289543283329797107e-15 0.000000000000000000e+00 0.000000000000000000e+00 0.000000000000000000e+00 0.000000000000000000e+00 6.356353784408717931e-16 -1.073686004005732404e-14 0.000000000000000000e+00 -4.587766633079489543e-15 -9.386958871418356127e-15 -6.772784545749384322e-02 -7.796630439359270026e-02 7.492448468385359828e-02 -1.209177892200782034e-01 6.614032901090924343e-02 8.684025118452423642e-02 6.242189285482224043e-02 2.702578966710922695e-02 8.635669251751511288e-02 3.388435828137235928e-02 1.810093646613943411e-03 2.844471142278094666e-02 0.000000000000000000e+00 0.000000000000000000e+00 0.000000000000000000e+00 -4.749056443472371401e-15 6.954360451556344056e-15 0.000000000000000000e+00 4.115054223359507452e-15 1.855761298292833774e-15 0.000000000000000000e+00 9.395884790133236112e-15 -3.132456511244071375e-15 2.084095258021411173e-15 0.000000000000000000e+00 0.000000000000000000e+00 0.000000000000000000e+00 0.000000000000000000e+00 2.689140292950475960e-16 5.308511912643201134e-15 0.000000000000000000e+00 9.198129250615547349e-16 3.368089832642027995e-15 9.395884790133236112e-15 -3.132456511244071375e-15 2.084095258021411173e-15 0.000000000000000000e+00 -3.126482521207078485e-15 6.041045926250843650e-15 0.000000000000000000e+00 -2.251148978049419624e-15 7.835039347908727893e-15 0.000000000000000000e+00 1.082838612681998803e-15 2.202107487774544363e-15 9.395884790133236112e-15 -3.132456511244071375e-15 2.084095258021411173e-15 0.000000000000000000e+00 0.000000000000000000e+00 0.000000000000000000e+00 0.000000000000000000e+00 3.004141315712676368e-15 9.477548049066611006e-15 0.000000000000000000e+00 2.071048782737816143e-15 2.925407821869876781e-15 9.395884790133236112e-15 -3.132456511244071375e-15 2.084095258021411173e-15 0.000000000000000000e+00 0.000000000000000000e+00 0.000000000000000000e+00 0.000000000000000000e+00 2.836354165825634119e-15 4.552789432903984420e-15 0.000000000000000000e+00 -8.689386886770289015e-16 4.421299228467271284e-15
